<?xml version="1.0" encoding="utf-8"?>
<!-- Generator: Adobe Illustrator 23.0.2, SVG Export Plug-In . SVG Version: 6.00 Build 0)  -->
<svg version="1.1" id="geo-mesh" xmlns="http://www.w3.org/2000/svg" xmlns:xlink="http://www.w3.org/1999/xlink" x="0px" y="0px"
	 viewBox="0 0 560 560" style="enable-background:new 0 0 560 560;" xml:space="preserve">
	<style type="text/css">
		.st0{opacity:0.15;}
		.st1{fill:none;stroke:#FFFFFF;stroke-width:1.09;stroke-miterlimit:10;}
		.st2{fill:#FFFFFF;}
	</style>
	<g class="st0">
		<polyline class="st1" points="157.49,59.08 254.77,33.26 367.87,132.03 377.27,57.34 258.36,32.11 307.56,5.06 377.27,57.34 
			419.01,39.78 478.96,116.65 377.27,57.34 	"/>
		<polyline class="st1" points="519.95,204.6 478.07,115.55 476.58,210.37 367.87,132.03 478.96,116.65 514.42,122.47 519.95,204.6 
			556.01,230.58 515.04,331.1 540.97,386.67 476.62,428.83 436.8,512.93 408.73,509.99 385.06,467.11 376.39,332.5 461.71,398.71 
			476.62,428.83 515.04,331.1 461.71,398.71 467.12,298.72 376.39,332.5 476.58,210.37 519.95,204.6 476.58,210.37 467.12,298.72 
			519.95,204.6 515.04,331.1 467.12,298.72 	"/>
		<polyline class="st1" points="461.71,398.71 385.05,467.11 476.62,428.83 408.73,509.99 	"/>
		<polyline class="st1" points="335.9,554.86 295.54,526.64 408.74,509.99 335.9,554.86 436.8,512.93 540.97,386.67 556.3,232.08 
			512.64,121.42 419,39.78 307.77,2.51 193.52,11.51 112.39,55.25 45.34,132.48 2.13,262 57.26,202.03 45.34,132.48 91,112.18 
			187.18,153.48 157.49,59.08 91,112.18 112.39,55.25 157.49,59.08 193.52,11.51 254.77,33.26 187.18,153.48 	"/>
		<line class="st1" x1="295.54" y1="526.64" x2="385.05" y2="467.11"/>
		<path class="st2" d="M473.82,214.01c-2.05-1.55-2.45-4.46-0.9-6.51c1.55-2.05,4.47-2.45,6.52-0.9c2.05,1.55,2.45,4.46,0.9,6.51
			C478.79,215.16,475.87,215.56,473.82,214.01"/>
		<path class="st2" d="M464.31,302.43c-2.05-1.55-2.45-4.46-0.9-6.51c1.55-2.05,4.47-2.45,6.51-0.9c2.05,1.55,2.45,4.46,0.9,6.51
			C469.28,303.57,466.36,303.98,464.31,302.43"/>
		<path class="st2" d="M458.9,402.41c-2.05-1.55-2.45-4.46-0.9-6.51c1.55-2.05,4.47-2.45,6.52-0.9c2.05,1.55,2.45,4.46,0.9,6.51
			C463.87,403.56,460.95,403.96,458.9,402.41"/>
		<path class="st2" d="M381.36,471.42c-2.05-1.55-2.45-4.46-0.9-6.51c1.55-2.05,4.47-2.45,6.51-0.9c2.05,1.55,2.45,4.46,0.9,6.51
			C386.32,472.57,383.41,472.97,381.36,471.42"/>
		<path class="st2" d="M333.09,558.57c-2.05-1.55-2.45-4.46-0.9-6.51c1.55-2.05,4.47-2.45,6.51-0.9c2.05,1.55,2.45,4.46,0.9,6.51
			C338.05,559.71,335.14,560.12,333.09,558.57"/>
		<path class="st2" d="M291.83,528.52c-2.05-1.55-2.45-4.46-0.9-6.51c1.55-2.05,4.47-2.45,6.52-0.9c2.05,1.55,2.45,4.46,0.9,6.51
			C296.8,529.67,293.88,530.07,291.83,528.52"/>
		<path class="st2" d="M373.74,336.18c-2.05-1.55-2.45-4.46-0.9-6.51c1.55-2.05,4.47-2.45,6.52-0.9c2.05,1.55,2.45,4.46,0.9,6.51
			C378.71,337.33,375.79,337.73,373.74,336.18"/>
		<path class="st2" d="M365.77,134.42c-2.05-1.55-2.45-4.46-0.9-6.51c1.55-2.05,4.47-2.45,6.51-0.9c2.05,1.55,2.45,4.46,0.9,6.51
			C370.74,135.57,367.82,135.97,365.77,134.42"/>
		<path class="st2" d="M375.74,60.85c-1.72-1.3-2.06-3.75-0.76-5.47c1.3-1.72,3.76-2.06,5.48-0.76c1.72,1.3,2.06,3.75,0.76,5.47
			C379.92,61.82,377.46,62.16,375.74,60.85"/>
		<path class="st2" d="M475.03,120.14c-1.72-1.3-2.06-3.75-0.76-5.47c1.3-1.72,3.75-2.06,5.48-0.76c1.72,1.3,2.06,3.75,0.76,5.47
			C479.21,121.1,476.75,121.44,475.03,120.14"/>
		<path class="st2" d="M517.52,207.62c-1.72-1.3-2.06-3.75-0.76-5.47c1.3-1.72,3.75-2.06,5.48-0.76c1.72,1.3,2.06,3.75,0.76,5.47
			C521.7,208.59,519.24,208.93,517.52,207.62"/>
		<path class="st2" d="M512,334.12c-1.72-1.3-2.06-3.75-0.76-5.47c1.3-1.72,3.75-2.06,5.48-0.76c1.72,1.3,2.06,3.75,0.76,5.47
			C516.18,335.09,513.72,335.42,512,334.12"/>
		<path class="st2" d="M473.3,431.66c-1.72-1.3-2.06-3.75-0.76-5.47c1.3-1.72,3.75-2.06,5.48-0.76c1.72,1.3,2.06,3.75,0.76,5.47
			C477.47,432.63,475.02,432.97,473.3,431.66"/>
		<path class="st2" d="M154.09,62.06c-1.72-1.3-2.06-3.75-0.76-5.47c1.3-1.72,3.75-2.06,5.48-0.76c1.72,1.3,2.06,3.75,0.76,5.47
			C158.27,63.02,155.81,63.36,154.09,62.06"/>
		<path class="st2" d="M88.87,115.15c-1.72-1.3-2.06-3.75-0.76-5.47c1.3-1.72,3.76-2.06,5.48-0.76c1.72,1.3,2.06,3.75,0.76,5.47
			C93.05,116.11,90.59,116.45,88.87,115.15"/>
		<path class="st2" d="M43.37,135.09c-1.44-1.09-1.72-3.14-0.63-4.58c1.09-1.44,3.14-1.72,4.58-0.63c1.44,1.09,1.72,3.14,0.63,4.58
			C46.86,135.89,44.81,136.17,43.37,135.09"/>
		<path class="st2" d="M110.64,57.28c-1.44-1.09-1.72-3.14-0.63-4.58c1.09-1.44,3.14-1.72,4.58-0.63c1.44,1.09,1.72,3.14,0.64,4.58
			C114.13,58.09,112.08,58.37,110.64,57.28"/>
		<path class="st2" d="M190.69,14.51c-1.44-1.09-1.72-3.14-0.63-4.58c1.09-1.44,3.14-1.72,4.58-0.63c1.44,1.09,1.72,3.14,0.63,4.58
			C194.18,15.32,192.13,15.6,190.69,14.51"/>
		<path class="st2" d="M305.56,6.4c-1.44-1.09-1.72-3.14-0.63-4.58c1.09-1.44,3.14-1.72,4.58-0.63c1.44,1.09,1.72,3.14,0.63,4.58
			C309.05,7.21,307,7.49,305.56,6.4"/>
		<path class="st2" d="M415.84,42.38c-1.44-1.09-1.72-3.14-0.63-4.58c1.09-1.44,3.14-1.72,4.58-0.63c1.44,1.09,1.72,3.14,0.63,4.58
			C419.33,43.18,417.29,43.47,415.84,42.38"/>
		<path class="st2" d="M512.08,124.72c-1.44-1.09-1.72-3.14-0.63-4.58c1.09-1.44,3.14-1.72,4.58-0.63c1.44,1.09,1.72,3.14,0.63,4.58
			C515.57,125.53,513.52,125.81,512.08,124.72"/>
		<path class="st2" d="M554.76,234.38c-1.44-1.09-1.72-3.14-0.63-4.58c1.09-1.44,3.14-1.72,4.58-0.63c1.44,1.09,1.72,3.14,0.63,4.58
			C558.25,235.18,556.2,235.47,554.76,234.38"/>
		<path class="st2" d="M538.43,389.32c-1.44-1.09-1.72-3.14-0.63-4.58c1.09-1.44,3.14-1.73,4.58-0.64c1.44,1.09,1.72,3.14,0.63,4.58
			C541.92,390.12,539.87,390.4,538.43,389.32"/>
		<path class="st2" d="M433.99,515.44c-1.44-1.09-1.72-3.14-0.64-4.58c1.09-1.44,3.14-1.72,4.58-0.63c1.44,1.09,1.72,3.14,0.63,4.58
			C437.48,516.25,435.43,516.53,433.99,515.44"/>
		<path class="st2" d="M405.63,512.37c-1.72-1.3-2.06-3.75-0.76-5.47c1.3-1.72,3.76-2.06,5.48-0.76c1.72,1.3,2.06,3.75,0.76,5.47
			C409.81,513.33,407.35,513.67,405.63,512.37"/>
		<path class="st2" d="M252.42,36.74c-2.05-1.55-2.45-4.46-0.9-6.51c1.55-2.05,4.47-2.45,6.52-0.9c2.05,1.55,2.45,4.46,0.9,6.51
			C257.39,37.88,254.47,38.29,252.42,36.74"/>
		<path class="st2" d="M185.38,156.23c-2.05-1.55-2.45-4.46-0.9-6.51c1.55-2.05,4.47-2.45,6.52-0.9c2.05,1.55,2.45,4.46,0.9,6.51
			C190.34,157.38,187.43,157.78,185.38,156.23"/>
		<path class="st2" d="M55.34,205.69c-2.05-1.55-2.45-4.46-0.9-6.51c1.55-2.05,4.47-2.45,6.52-0.9c2.05,1.55,2.45,4.46,0.9,6.51
			C60.31,206.84,57.39,207.24,55.34,205.69"/>
		<polygon class="st1" points="47.34,132.85 38.28,208.23 111.38,99.6 	"/>
		<polygon class="st1" points="111.38,99.6 110.46,57.79 173.8,61.7 	"/>
		<polyline class="st1" points="451.26,108.13 405.4,147.56 351.97,49.06 291.54,106.03 257.46,22.16 351.97,49.06 451.26,108.13 	
			"/>
		<path class="st1" d="M257.46,22.16L173.8,61.7l18.62-48.74L257.46,22.16l50.58-20.01l43.92,46.91l67.49-8.37l31.8,67.44
			l62.84,14.38l11.68,63.08l31.8,46.31L527.8,273.5l13.27,111.54l-63.67,54.66l-40.6,73.24l-61.57-12.28l-42.94-42.17l107.02-48.87
			l-64.46,91.18l102.55-61.1l51.02-167.01l-89.11,136.93l16.8-126.92l72.31-10.01l-2.64-87.09l-69.51,96.89
			c-0.09,0.13-0.25,0.19-0.4,0.17l-64.81-10.46l14.36-124.63l50.45,135.09l-4.6-174.52l74.51,77.46"/>
		<line class="st1" x1="173.8" y1="61.7" x2="291.54" y2="106.03"/>
		<line class="st1" x1="439.31" y1="409.61" x2="477.4" y2="439.69"/>
		<path class="st2" d="M525.03,275.6c-1.44-1.09-1.72-3.14-0.63-4.58c1.09-1.44,3.14-1.72,4.58-0.63c1.44,1.09,1.72,3.14,0.63,4.58
			C528.52,276.41,526.47,276.69,525.03,275.6"/>
		<path class="st2" d="M522.84,187.62c-1.44-1.09-1.72-3.14-0.63-4.58c1.09-1.44,3.14-1.72,4.58-0.63c1.44,1.09,1.72,3.14,0.63,4.58
			C526.33,188.43,524.28,188.71,522.84,187.62"/>
		<path class="st2" d="M453.82,284.28c-1.44-1.09-1.72-3.14-0.63-4.58c1.09-1.44,3.14-1.72,4.58-0.63c1.44,1.09,1.72,3.14,0.63,4.58
			C457.31,285.08,455.26,285.37,453.82,284.28"/>
		<path class="st2" d="M435.7,412.86c-1.44-1.09-1.72-3.14-0.64-4.58c1.09-1.44,3.14-1.72,4.58-0.63c1.44,1.09,1.72,3.14,0.63,4.58
			C439.19,413.66,437.14,413.95,435.7,412.86"/>
		<path class="st2" d="M474.96,442.84c-1.44-1.09-1.72-3.14-0.63-4.58c1.09-1.44,3.14-1.72,4.58-0.63c1.44,1.09,1.72,3.14,0.64,4.58
			C478.45,443.64,476.4,443.93,474.96,442.84"/>
		<path class="st2" d="M373.03,502.7c-1.44-1.09-1.72-3.14-0.63-4.58c1.09-1.44,3.14-1.72,4.58-0.63c1.44,1.09,1.72,3.14,0.63,4.58
			C376.53,503.51,374.47,503.79,373.03,502.7"/>
		<path class="st2" d="M330.32,461.09c-1.44-1.09-1.72-3.14-0.63-4.58c1.09-1.44,3.14-1.72,4.58-0.63c1.44,1.09,1.72,3.14,0.63,4.58
			C333.81,461.89,331.76,462.18,330.32,461.09"/>
		<path class="st2" d="M389.07,274.8c-1.44-1.09-1.72-3.14-0.63-4.58c1.09-1.44,3.14-1.72,4.58-0.63c1.44,1.09,1.72,3.14,0.63,4.58
			C392.57,275.6,390.51,275.89,389.07,274.8"/>
		<path class="st2" d="M402.9,149.52c-1.44-1.09-1.72-3.14-0.63-4.58c1.09-1.44,3.14-1.72,4.58-0.63c1.44,1.09,1.72,3.14,0.64,4.58
			C406.39,150.33,404.34,150.61,402.9,149.52"/>
		<path class="st2" d="M448.54,110.5c-1.44-1.09-1.72-3.14-0.63-4.58c1.09-1.44,3.14-1.72,4.58-0.63c1.44,1.09,1.72,3.14,0.63,4.58
			C452.03,111.3,449.98,111.59,448.54,110.5"/>
		<path class="st2" d="M349.75,51.12c-1.44-1.09-1.72-3.14-0.63-4.58c1.09-1.44,3.14-1.72,4.58-0.63c1.44,1.09,1.72,3.14,0.63,4.58
			C353.24,51.92,351.19,52.21,349.75,51.12"/>
		<path class="st2" d="M289.59,108.93c-1.44-1.09-1.72-3.14-0.63-4.58c1.09-1.44,3.14-1.72,4.58-0.63c1.44,1.09,1.72,3.14,0.63,4.58
			C293.08,109.73,291.03,110.02,289.59,108.93"/>
		<path class="st2" d="M172.43,63.81c-1.44-1.09-1.72-3.14-0.63-4.58c1.09-1.44,3.14-1.72,4.58-0.63c1.44,1.09,1.72,3.14,0.63,4.58
			C175.92,64.61,173.87,64.9,172.43,63.81"/>
		<path class="st2" d="M109.03,101.9c-1.44-1.09-1.72-3.14-0.63-4.58c1.09-1.44,3.14-1.72,4.58-0.63c1.44,1.09,1.72,3.14,0.63,4.58
			C112.52,102.71,110.47,102.99,109.03,101.9"/>
		<path class="st2" d="M34.54,211.69c-1.44-1.09-1.72-3.14-0.63-4.58c1.09-1.44,3.14-1.72,4.58-0.63c1.44,1.09,1.72,3.14,0.63,4.58
			C38.03,212.49,35.98,212.78,34.54,211.69"/>
		<path class="st2" d="M254.87,23.72c-1.44-1.09-1.72-3.14-0.63-4.58c1.09-1.44,3.14-1.72,4.58-0.63c1.44,1.09,1.72,3.14,0.63,4.58
			C258.36,24.52,256.3,24.8,254.87,23.72"/>
		<polygon class="st1" points="367.87,132.03 187.81,152.5 57.26,202.03 153.12,274.8 187.81,152.5 298.99,272.78 	"/>
	</g>
</svg>
